<svg width="40" height="40" viewBox="0 0 40 40" fill="none" xmlns="http://www.w3.org/2000/svg">
<circle cx="20" cy="20" r="20" fill="#FBFBFB"/>
<g clip-path="url(#clip0_280_2605)">
<path d="M29.75 20.75V29.75C29.75 30.1478 29.592 30.5294 29.3107 30.8107C29.0294 31.092 28.6478 31.25 28.25 31.25H11.75C11.3522 31.25 10.9706 31.092 10.6893 30.8107C10.408 30.5294 10.25 30.1478 10.25 29.75V20.75" stroke="#CCCCCC" stroke-width="1.5" stroke-linecap="round" stroke-linejoin="round"/>
<path d="M26.75 24.5C26.75 23.7044 26.4339 22.9413 25.8713 22.3787C25.3087 21.8161 24.5456 21.5 23.75 21.5C22.9544 21.5 22.1913 21.8161 21.6287 22.3787C21.0661 22.9413 20.75 23.7044 20.75 24.5V31.25H26.75V24.5Z" stroke="#CCCCCC" stroke-width="1.5" stroke-linecap="round" stroke-linejoin="round"/>
<path d="M17 23.75H14C13.5858 23.75 13.25 24.0858 13.25 24.5V27.5C13.25 27.9142 13.5858 28.25 14 28.25H17C17.4142 28.25 17.75 27.9142 17.75 27.5V24.5C17.75 24.0858 17.4142 23.75 17 23.75Z" stroke="#CCCCCC" stroke-width="1.5" stroke-linecap="round" stroke-linejoin="round"/>
<path d="M24.125 26.7598C23.9179 26.7598 23.75 26.5919 23.75 26.3848C23.75 26.1777 23.9179 26.0098 24.125 26.0098" stroke="#CCCCCC" stroke-width="1.5"/>
<path d="M24.125 26.7598C24.3321 26.7598 24.5 26.5919 24.5 26.3848C24.5 26.1777 24.3321 26.0098 24.125 26.0098" stroke="#CCCCCC" stroke-width="1.5"/>
<path d="M8.75 15.5C8.79279 16.2176 9.108 16.8917 9.63121 17.3847C10.1544 17.8776 10.8462 18.1521 11.565 18.1521C12.2839 18.1521 12.9756 17.8776 13.4988 17.3847C14.022 16.8917 14.3372 16.2176 14.38 15.5C14.38 16.2453 14.6761 16.96 15.203 17.487C15.73 18.0139 16.4447 18.31 17.19 18.31C17.9353 18.31 18.65 18.0139 19.177 17.487C19.7039 16.96 20 16.2453 20 15.5C20.0428 16.2176 20.358 16.8917 20.8812 17.3847C21.4044 17.8776 22.0961 18.1521 22.815 18.1521C23.5339 18.1521 24.2256 17.8776 24.7488 17.3847C25.272 16.8917 25.5872 16.2176 25.63 15.5C25.63 16.2453 25.9261 16.96 26.453 17.487C26.98 18.0139 27.6947 18.31 28.44 18.31C29.1853 18.31 29.9 18.0139 30.427 17.487C30.9539 16.96 31.25 16.2453 31.25 15.5L29.88 9.34C29.8436 9.17328 29.7514 9.02396 29.6187 8.91669C29.486 8.80942 29.3206 8.75062 29.15 8.75H10.85C10.6793 8.75062 10.514 8.80942 10.3813 8.91669C10.2486 9.02396 10.1564 9.17328 10.12 9.34L8.75 15.5Z" stroke="#CCCCCC" stroke-width="1.5" stroke-linecap="round" stroke-linejoin="round"/>
</g>
<defs>
<clipPath id="clip0_280_2605">
<rect width="24" height="24" fill="white" transform="translate(8 8)"/>
</clipPath>
</defs>
</svg>
