<svg width="40" height="40" viewBox="0 0 40 40" fill="none" xmlns="http://www.w3.org/2000/svg">
<circle cx="20" cy="20" r="20" fill="white"/>
<path d="M11.375 15.875C11.375 16.969 11.8096 18.0182 12.5832 18.7918C13.3568 19.5654 14.406 20 15.5 20C16.594 20 17.6432 19.5654 18.4168 18.7918C19.1904 18.0182 19.625 16.969 19.625 15.875C19.625 14.781 19.1904 13.7318 18.4168 12.9582C17.6432 12.1846 16.594 11.75 15.5 11.75C14.406 11.75 13.3568 12.1846 12.5832 12.9582C11.8096 13.7318 11.375 14.781 11.375 15.875Z" stroke="#FF7214" stroke-width="1.5" stroke-linecap="round" stroke-linejoin="round"/>
<path d="M8.75 28.25C8.75 26.4598 9.46116 24.7429 10.727 23.477C11.9929 22.2112 13.7098 21.5 15.5 21.5C17.2902 21.5 19.0071 22.2112 20.273 23.477C21.5388 24.7429 22.25 26.4598 22.25 28.25" stroke="#FF7214" stroke-width="1.5" stroke-linecap="round" stroke-linejoin="round"/>
<path d="M22.251 12.416C22.8739 12.0113 23.5944 11.7823 24.3367 11.7532C25.0789 11.724 25.8152 11.8959 26.4679 12.2505C27.1206 12.6051 27.6654 13.1294 28.0448 13.768C28.4242 14.4066 28.6241 15.1358 28.6235 15.8786C28.6229 16.6214 28.4216 17.3502 28.0411 17.9882C27.6606 18.6261 27.1149 19.1494 26.4616 19.5029C25.8083 19.8564 25.0717 20.027 24.3295 19.9965C23.5873 19.9661 22.8672 19.7358 22.245 19.33" stroke="#FF7214" stroke-width="1.5" stroke-linecap="round" stroke-linejoin="round"/>
<path d="M23 21.667C23.9886 21.443 25.0148 21.4444 26.0028 21.6708C26.9908 21.8973 27.9151 22.3432 28.7074 22.9754C29.4997 23.6076 30.1396 24.4099 30.5798 25.323C31.0199 26.236 31.249 27.2364 31.25 28.25" stroke="#FF7214" stroke-width="1.5" stroke-linecap="round" stroke-linejoin="round"/>
</svg>
