<svg width="64" height="48" viewBox="0 0 64 48" fill="none" xmlns="http://www.w3.org/2000/svg">
<rect x="0.5" y="0.5" width="63" height="47" rx="3.5" stroke="#999999"/>
<path d="M20 14H23.6364L26.0727 26.7524C26.1559 27.1909 26.3836 27.5847 26.716 27.865C27.0483 28.1454 27.4643 28.2943 27.8909 28.2857H36.7273C37.1539 28.2943 37.5698 28.1454 37.9022 27.865C38.2346 27.5847 38.4623 27.1909 38.5455 26.7524L40 18.7619H24.5455M28.1818 33.0476C28.1818 33.5736 27.7748 34 27.2727 34C26.7707 34 26.3636 33.5736 26.3636 33.0476C26.3636 32.5216 26.7707 32.0952 27.2727 32.0952C27.7748 32.0952 28.1818 32.5216 28.1818 33.0476ZM38.1818 33.0476C38.1818 33.5736 37.7748 34 37.2727 34C36.7707 34 36.3636 33.5736 36.3636 33.0476C36.3636 32.5216 36.7707 32.0952 37.2727 32.0952C37.7748 32.0952 38.1818 32.5216 38.1818 33.0476Z" stroke="#999999" stroke-width="1.5" stroke-linecap="round" stroke-linejoin="round"/>
</svg>
