<svg width="17" height="14" viewBox="0 0 17 14" fill="none" xmlns="http://www.w3.org/2000/svg">
<path d="M15.2663 1.2377C14.8753 0.845314 14.4111 0.534045 13.9002 0.321676C13.3893 0.109307 12.8417 0 12.2887 0C11.7357 0 11.1881 0.109307 10.6772 0.321676C10.1663 0.534045 9.70211 0.845314 9.31116 1.2377L8.4998 2.05166L7.68843 1.2377C6.89874 0.445478 5.82768 0.000410637 4.71089 0.000410646C3.59409 0.000410654 2.52303 0.445478 1.73334 1.2377C0.943646 2.02993 0.5 3.10441 0.5 4.22479C0.5 5.34516 0.943646 6.41965 1.73334 7.21187L2.5447 8.02583L8.4998 14L14.4549 8.02583L15.2663 7.21187C15.6574 6.81967 15.9677 6.354 16.1794 5.84146C16.391 5.32893 16.5 4.77958 16.5 4.22479C16.5 3.67 16.391 3.12064 16.1794 2.60811C15.9677 2.09558 15.6574 1.6299 15.2663 1.2377Z" fill="#FF7214"/>
</svg>
