<svg width="60" height="60" viewBox="0 0 60 60" fill="none" xmlns="http://www.w3.org/2000/svg">
<g filter="url(#filter0_d_44_459)">
<rect x="9" y="9" width="40" height="40" rx="20" fill="white" shape-rendering="crispEdges"/>
<rect x="9.5" y="9.5" width="39" height="39" rx="19.5" stroke="#DEDEDE" shape-rendering="crispEdges"/>
<path d="M24.59 30.51L31.42 34.49M31.41 23.51L24.59 27.49M37 22C37 23.6569 35.6569 25 34 25C32.3431 25 31 23.6569 31 22C31 20.3431 32.3431 19 34 19C35.6569 19 37 20.3431 37 22ZM25 29C25 30.6569 23.6569 32 22 32C20.3431 32 19 30.6569 19 29C19 27.3431 20.3431 26 22 26C23.6569 26 25 27.3431 25 29ZM37 36C37 37.6569 35.6569 39 34 39C32.3431 39 31 37.6569 31 36C31 34.3431 32.3431 33 34 33C35.6569 33 37 34.3431 37 36Z" stroke="black" stroke-width="1.5" stroke-linecap="round" stroke-linejoin="round"/>
</g>
<defs>
<filter id="filter0_d_44_459" x="0" y="0" width="60" height="60" filterUnits="userSpaceOnUse" color-interpolation-filters="sRGB">
<feFlood flood-opacity="0" result="BackgroundImageFix"/>
<feColorMatrix in="SourceAlpha" type="matrix" values="0 0 0 0 0 0 0 0 0 0 0 0 0 0 0 0 0 0 127 0" result="hardAlpha"/>
<feOffset dx="1" dy="1"/>
<feGaussianBlur stdDeviation="5"/>
<feComposite in2="hardAlpha" operator="out"/>
<feColorMatrix type="matrix" values="0 0 0 0 0 0 0 0 0 0 0 0 0 0 0 0 0 0 0.1 0"/>
<feBlend mode="normal" in2="BackgroundImageFix" result="effect1_dropShadow_44_459"/>
<feBlend mode="normal" in="SourceGraphic" in2="effect1_dropShadow_44_459" result="shape"/>
</filter>
</defs>
</svg>
