<svg width="442" height="103" viewBox="0 0 442 103" fill="none" xmlns="http://www.w3.org/2000/svg">
<g clip-path="url(#clip0_15_39)">
<path d="M63.6468 57.166C63.6468 72.7152 77.2192 84.2131 94.8243 84.2131V102.029C76.5732 102.029 60.7402 94.582 53.9499 81.9467C47.4908 94.416 30.5233 103 10.8148 103H0V85.1844H10.5001C29.8857 85.1844 43.2924 73.1967 43.2924 57.166V50.8483H17.2822V33.0327H90.3029V50.8483H63.6468V57.166ZM151.209 50.2091H127.625V68.996C127.625 79.6886 131.666 84.5452 141.843 85.1927H145.719V103.008H141.355C118.574 103.008 107.27 91.3443 107.27 70.4571V0H127.625V32.3935H151.209V50.2091Z" fill="#FF7214"/>
<path d="M209.042 57.166C209.042 72.7152 222.615 84.2131 240.22 84.2131V102.029C221.969 102.029 206.136 94.582 199.346 81.9467C192.886 94.416 175.919 103 156.21 103H145.387V85.1844H155.887C175.273 85.1844 188.68 73.1967 188.68 57.166V50.8483H162.67V33.0327H235.69V50.8483H209.034V57.166H209.042ZM296.604 50.2091H273.02V68.996C273.02 79.6886 277.062 84.5452 287.239 85.1927H291.114V103.008H286.75C263.969 103.008 252.666 91.3443 252.666 70.4571V0H273.02V32.3935H296.604V50.2091Z" fill="#FF7214"/>
<path d="M354.438 57.166C354.438 72.7152 368.01 84.2131 385.616 84.2131V102.029C367.364 102.029 351.531 94.582 344.741 81.9467C338.282 94.416 321.315 103 301.606 103H290.783V85.1844H301.283C320.669 85.1844 334.075 73.1967 334.075 57.166V50.8483H308.065V33.0327H381.086V50.8483H354.43V57.166H354.438ZM442 50.2091H418.416V68.996C418.416 79.6886 422.457 84.5452 432.634 85.1927H436.51V103.008H432.146C409.365 103.008 398.062 91.3443 398.062 70.4571V0H418.416V32.3935H442V50.2091Z" fill="#FF7214"/>
</g>
<defs>
<clipPath id="clip0_15_39">
<rect width="442" height="103" fill="white"/>
</clipPath>
</defs>
</svg>
