<svg width="22" height="23" viewBox="0 0 22 23" fill="none" xmlns="http://www.w3.org/2000/svg">
<path d="M7.07273 14.6524C7.15586 15.0909 7.38355 15.4847 7.71595 15.7651C8.04835 16.0454 8.46427 16.1943 8.89091 16.1857H17.7273C18.1539 16.1943 18.5698 16.0454 18.9022 15.7651C19.2346 15.4847 19.4623 15.0909 19.5455 14.6524L21 6.66193H5.54545L7.07273 14.6524ZM7.07273 14.6524L4.63636 1.90002H1M9.18182 20.9476C9.18182 21.4736 8.7748 21.9 8.27273 21.9C7.77065 21.9 7.36364 21.4736 7.36364 20.9476C7.36364 20.4217 7.77065 19.9953 8.27273 19.9953C8.7748 19.9953 9.18182 20.4217 9.18182 20.9476ZM19.1818 20.9476C19.1818 21.4736 18.7748 21.9 18.2727 21.9C17.7707 21.9 17.3636 21.4736 17.3636 20.9476C17.3636 20.4217 17.7707 19.9953 18.2727 19.9953C18.7748 19.9953 19.1818 20.4217 19.1818 20.9476Z" stroke="#DEDEDE" stroke-width="2" stroke-linecap="round" stroke-linejoin="round"/>
</svg>
