<svg width="16" height="21" viewBox="0 0 16 21" fill="none" xmlns="http://www.w3.org/2000/svg">
<path fill-rule="evenodd" clip-rule="evenodd" d="M0 3.00529C0 1.84258 0.895431 0.900024 2 0.900024H14C15.1046 0.900024 16 1.84258 16 3.00529V18.7948C16 19.9575 15.1046 20.9 14 20.9H2C0.895431 20.9 0 19.9575 0 18.7948V3.00529ZM2.5 13.5316C2.5 13.2409 2.72386 13.0053 3 13.0053H13C13.2761 13.0053 13.5 13.2409 13.5 13.5316C13.5 13.8223 13.2761 14.0579 13 14.0579H3C2.72386 14.0579 2.5 13.8223 2.5 13.5316ZM3 17.2158C2.72386 17.2158 2.5 17.4515 2.5 17.7421C2.5 18.0328 2.72386 18.2684 3 18.2684H13C13.2761 18.2684 13.5 18.0328 13.5 17.7421C13.5 17.4515 13.2761 17.2158 13 17.2158H3ZM2.5 9.32108C2.5 9.0304 2.72386 8.79476 3 8.79476H13C13.2761 8.79476 13.5 9.0304 13.5 9.32108C13.5 9.61175 13.2761 9.84739 13 9.84739H3C2.72386 9.84739 2.5 9.61175 2.5 9.32108ZM3 4.58424C2.72386 4.58424 2.5 4.81987 2.5 5.11055C2.5 5.40123 2.72386 5.63687 3 5.63687H9C9.27614 5.63687 9.5 5.40123 9.5 5.11055C9.5 4.81987 9.27614 4.58424 9 4.58424H3Z" fill="#DEDEDE"/>
</svg>
