<svg width="52" height="48" viewBox="0 0 52 48" fill="none" xmlns="http://www.w3.org/2000/svg">
<path d="M16 14H19.6364L22.0727 26.8938C22.1559 27.3371 22.3836 27.7353 22.716 28.0188C23.0483 28.3022 23.4643 28.4528 23.8909 28.4441H32.7273C33.1539 28.4528 33.5698 28.3022 33.9022 28.0188C34.2346 27.7353 34.4623 27.3371 34.5455 26.8938L36 18.8147H20.5455M24.4211 32.8889C24.4211 33.5025 23.9498 34 23.3684 34C22.7871 34 22.3158 33.5025 22.3158 32.8889C22.3158 32.2752 22.7871 31.7778 23.3684 31.7778C23.9498 31.7778 24.4211 32.2752 24.4211 32.8889ZM33.8947 32.8889C33.8947 33.5025 33.4235 34 32.8421 34C32.2608 34 31.7895 33.5025 31.7895 32.8889C31.7895 32.2752 32.2608 31.7778 32.8421 31.7778C33.4235 31.7778 33.8947 32.2752 33.8947 32.8889Z" stroke="black" stroke-width="1.5" stroke-linecap="round" stroke-linejoin="round"/>
</svg>
