<svg width="22" height="22" viewBox="0 0 22 22" fill="none" xmlns="http://www.w3.org/2000/svg">
<path d="M1 1H4.63636L7.07273 13.8938C7.15586 14.3371 7.38355 14.7353 7.71595 15.0188C8.04835 15.3022 8.46427 15.4528 8.89091 15.4441H17.7273C18.1539 15.4528 18.5698 15.3022 18.9022 15.0188C19.2346 14.7353 19.4623 14.3371 19.5455 13.8938L21 5.8147H5.54545M9.42105 19.8889C9.42105 20.5025 8.94977 21 8.36842 21C7.78707 21 7.31579 20.5025 7.31579 19.8889C7.31579 19.2752 7.78707 18.7778 8.36842 18.7778C8.94977 18.7778 9.42105 19.2752 9.42105 19.8889ZM18.8947 19.8889C18.8947 20.5025 18.4235 21 17.8421 21C17.2608 21 16.7895 20.5025 16.7895 19.8889C16.7895 19.2752 17.2608 18.7778 17.8421 18.7778C18.4235 18.7778 18.8947 19.2752 18.8947 19.8889Z" stroke="black" stroke-width="1.5" stroke-linecap="round" stroke-linejoin="round"/>
</svg>
