<svg width="22" height="23" viewBox="0 0 22 23" fill="none" xmlns="http://www.w3.org/2000/svg">
<path d="M7.07273 14.6523C7.15586 15.0908 7.38355 15.4846 7.71595 15.7649C8.04835 16.0453 8.46427 16.1942 8.89091 16.1856H17.7273C18.1539 16.1942 18.5698 16.0453 18.9022 15.7649C19.2346 15.4846 19.4623 15.0908 19.5455 14.6523L21 6.66181H5.54545L7.07273 14.6523ZM7.07273 14.6523L4.63636 1.8999H1M9.18182 20.9475C9.18182 21.4735 8.7748 21.8999 8.27273 21.8999C7.77065 21.8999 7.36364 21.4735 7.36364 20.9475C7.36364 20.4215 7.77065 19.9951 8.27273 19.9951C8.7748 19.9951 9.18182 20.4215 9.18182 20.9475ZM19.1818 20.9475C19.1818 21.4735 18.7748 21.8999 18.2727 21.8999C17.7707 21.8999 17.3636 21.4735 17.3636 20.9475C17.3636 20.4215 17.7707 19.9951 18.2727 19.9951C18.7748 19.9951 19.1818 20.4215 19.1818 20.9475Z" stroke="#DEDEDE" stroke-width="2" stroke-linecap="round" stroke-linejoin="round"/>
</svg>
