<svg width="20" height="21" viewBox="0 0 20 21" fill="none" xmlns="http://www.w3.org/2000/svg">
<path d="M19.3926 9.86292C19.7812 10.2539 20 10.7833 20 11.3346C20 11.8859 19.7812 12.4153 19.3926 12.8063L11.9131 20.2877C11.7194 20.4816 11.4895 20.6359 11.2363 20.7408C10.9831 20.8458 10.7116 20.9 10.4375 20.9C10.1635 20.9 9.89181 20.8457 9.63867 20.7408C9.38541 20.6358 9.1547 20.4817 8.96094 20.2877L0 11.3346V0.900024H10.4316L19.3926 9.86292ZM5.21582 5.07385C4.63975 5.07393 4.17285 5.54156 4.17285 6.1178C4.17311 6.69382 4.63991 7.16069 5.21582 7.16077C5.7918 7.16077 6.25853 6.69387 6.25879 6.1178C6.25879 5.54151 5.79196 5.07385 5.21582 5.07385Z" fill="#DEDEDE"/>
</svg>
