<svg width="52" height="48" viewBox="0 0 52 48" fill="none" xmlns="http://www.w3.org/2000/svg">
<path d="M32.6667 19.8C32.6667 17.9965 31.9643 16.2669 30.714 14.9917C29.4638 13.7164 27.7681 13 26 13C24.2319 13 22.5362 13.7164 21.286 14.9917C20.0357 16.2669 19.3333 17.9965 19.3333 19.8C19.3333 27.7333 16 30 16 30H36C36 30 32.6667 27.7333 32.6667 19.8Z" stroke="#222222" stroke-width="1.5" stroke-linecap="round" stroke-linejoin="round"/>
<path d="M28 34C27.7968 34.3042 27.505 34.5566 27.154 34.7321C26.803 34.9076 26.4051 35 26 35C25.5949 35 25.197 34.9076 24.846 34.7321C24.495 34.5566 24.2032 34.3042 24 34" stroke="#222222" stroke-width="1.5" stroke-linecap="round" stroke-linejoin="round"/>
</svg>
