<svg viewBox="0 0 160 36" fill="none" xmlns="http://www.w3.org/2000/svg">
<g clip-path="url(#clip0_214_2351)">
<path d="M23.0396 19.9803C23.0396 25.415 27.9526 29.4337 34.3255 29.4337V35.6605C27.7188 35.6605 21.9874 33.0578 19.5294 28.6416C17.1912 32.9998 11.0492 36 3.91487 36H0V29.7732H3.80096C10.8183 29.7732 15.6715 25.5833 15.6715 19.9803V17.7722H6.25599V11.5454H32.6888V17.7722H23.0396V19.9803ZM54.7362 17.5488H46.199V24.1151C46.199 27.8523 47.6619 29.5498 51.3459 29.7761H52.7488V36.0029H51.1691C42.9227 36.0029 38.8309 31.9262 38.8309 24.6258V0H46.199V11.322H54.7362V17.5488Z" fill="#FF7214"/>
<path d="M75.6715 19.9803C75.6715 25.415 80.5845 29.4337 86.9574 29.4337V35.6605C80.3507 35.6605 74.6193 33.0578 72.1613 28.6416C69.8231 32.9998 63.6811 36 56.5468 36H52.6289V29.7732H56.4299C63.4472 29.7732 68.3004 25.5833 68.3004 19.9803V17.7722H58.8849V11.5454H85.3178V17.7722H75.6685V19.9803H75.6715ZM107.368 17.5488H98.8309V24.1151C98.8309 27.8523 100.294 29.5498 103.978 29.7761H105.381V36.0029H103.801C95.5546 36.0029 91.4628 31.9262 91.4628 24.6258V0H98.8309V11.322H107.368V17.5488Z" fill="#FF7214"/>
<path d="M128.303 19.9803C128.303 25.415 133.216 29.4337 139.589 29.4337V35.6605C132.983 35.6605 127.251 33.0578 124.793 28.6416C122.455 32.9998 116.313 36 109.179 36H105.261V29.7732H109.062C116.079 29.7732 120.932 25.5833 120.932 19.9803V17.7722H111.517V11.5454H137.95V17.7722H128.3V19.9803H128.303ZM160 17.5488H151.463V24.1151C151.463 27.8523 152.926 29.5498 156.61 29.7761H158.013V36.0029H156.433C148.186 36.0029 144.095 31.9262 144.095 24.6258V0H151.463V11.322H160V17.5488Z" fill="#FF7214"/>
</g>
<defs>
<clipPath id="clip0_214_2351">
<rect width="160" height="36" fill="white"/>
</clipPath>
</defs>
</svg>
