<svg width="127" height="23" viewBox="0 0 127 23" fill="none" xmlns="http://www.w3.org/2000/svg">
<path d="M14.427 8.9V0.579999H16.067V5.08H18.867V6.56H16.067V8.84C16.067 10.56 16.547 11.62 18.147 11.62H18.647V13.1H18.127C15.727 13.1 14.427 11.7 14.427 8.9ZM1.94703 13.1H0.187031V11.62H1.74703C4.76703 11.62 6.50703 10.18 6.50703 7.66V6.56H2.44703V5.08H12.147V6.56H8.20703V7.66C8.20703 10.08 9.84703 11.52 12.647 11.58V13.02C10.307 13.02 8.38703 12.06 7.36703 10.4C6.38703 12.12 4.40703 13.1 1.94703 13.1ZM38.0255 11.62V13.1C36.4255 13 35.3255 12.14 34.9455 10.48H30.0055V9H34.8055V6.64H30.0055V5.16H34.8055V0.579999H36.4455V8.78C36.4455 10.36 36.9455 11.38 38.0255 11.62ZM24.5455 13.1H18.5855V11.62H24.5455C25.9455 11.62 26.9655 10.58 26.9655 9.14C26.9655 7.72 25.9455 6.68 24.5455 6.68C23.1655 6.68 22.1455 7.72 22.1455 9.14C22.1455 9.7 22.2655 10.14 22.5255 10.54H20.8655C20.6255 10.16 20.5055 9.68 20.5055 9.14C20.5055 6.86 22.2255 5.2 24.5455 5.2C26.8855 5.2 28.6055 6.86 28.6055 9.14C28.6055 11.44 26.8855 13.1 24.5455 13.1ZM32.1655 22.46C29.7655 22.46 28.0455 20.86 28.0455 18.62C28.0455 16.38 29.7655 14.78 32.1655 14.78H35.8655V16.26H32.1655C30.7255 16.26 29.6855 17.24 29.6855 18.62C29.6855 20 30.7255 20.98 32.1655 20.98C33.6255 20.98 34.6655 20 34.6655 18.62C34.6655 18.12 34.5055 17.64 34.3055 17.34H35.9255C36.1455 17.66 36.3055 18 36.3055 18.62C36.3055 20.86 34.5855 22.46 32.1655 22.46ZM57.42 11.62V13.1C55.42 12.98 54.2 11.66 54.2 9.1V6.64H49.74V5.16H54.2V0.579999H55.84V8.78C55.84 10.36 56.34 11.38 57.42 11.62ZM43.98 13.1H37.98V11.62H43.98C45.38 11.62 46.4 10.58 46.4 9.14C46.4 7.7 45.38 6.66 43.98 6.66C42.58 6.66 41.56 7.7 41.56 9.14C41.56 9.7 41.68 10.14 41.94 10.54H40.28C40.04 10.16 39.92 9.68 39.92 9.14C39.92 6.84 41.64 5.18 43.98 5.18C46.32 5.18 48.04 6.84 48.04 9.14C48.04 11.44 46.32 13.1 43.98 13.1ZM54.04 21V14.7H55.68V22.48H48.3C47.72 22.48 47.4 22.16 47.4 21.58V14.7H49.04V17.14H52.92V18.62H49.04V21H54.04ZM71.6145 8.9V0.579999H73.2545V5.08H76.0545V6.56H73.2545V8.84C73.2545 10.56 73.7345 11.62 75.3345 11.62H75.8345V13.1H75.3145C72.9145 13.1 71.6145 11.7 71.6145 8.9ZM59.1345 13.1H57.3745V11.62H58.9345C61.9545 11.62 63.6945 10.18 63.6945 7.66V6.56H59.6345V5.08H69.3345V6.56H65.3945V7.66C65.3945 10.08 67.0345 11.52 69.8345 11.58V13.02C67.4945 13.02 65.5745 12.06 64.5545 10.4C63.5745 12.12 61.5945 13.1 59.1345 13.1ZM84.553 8.28V11.62H91.613V13.1H75.773V11.62H82.913V8.28H80.073C79.493 8.28 79.173 7.96 79.173 7.38V1.08H88.213V2.56H80.813V6.82H86.573V3.64H88.213V8.28H84.553ZM99.4938 9.76C97.0338 9.76 95.3138 8.14 95.3138 5.86C95.3138 3.58 97.0338 1.96 99.4938 1.96H103.194V3.44H99.4938C97.9938 3.44 96.9538 4.44 96.9538 5.86C96.9538 7.28 97.9938 8.28 99.4938 8.28C100.994 8.28 102.034 7.28 102.034 5.86C102.034 5.34 101.894 4.82 101.594 4.4H103.274C103.534 4.76 103.674 5.34 103.674 5.86C103.674 8.14 101.954 9.76 99.4938 9.76ZM91.5737 13.1V11.62H107.414V13.1H91.5737ZM121.615 8.9V0.579999H123.255V5.08H126.055V6.56H123.255V8.84C123.255 10.56 123.735 11.62 125.335 11.62H125.835V13.1H125.315C122.915 13.1 121.615 11.7 121.615 8.9ZM109.135 13.1H107.375V11.62H108.935C111.955 11.62 113.695 10.18 113.695 7.66V6.56H109.635V5.08H119.335V6.56H115.395V7.66C115.395 10.08 117.035 11.52 119.835 11.58V13.02C117.495 13.02 115.575 12.06 114.555 10.4C113.575 12.12 111.595 13.1 109.135 13.1Z" fill="#FF7214"/>
</svg>
