<svg width="120" height="120" viewBox="0 0 120 120" fill="none" xmlns="http://www.w3.org/2000/svg">
<path d="M120 60C120 93.1371 93.1371 120 60 120C26.8629 120 0 93.1371 0 60C0 26.8629 26.8629 0 60 0C93.1371 0 120 26.8629 120 60Z" fill="#F3F3F3"/>
<path d="M60 68.1818C73.5561 68.1818 84.5455 57.1924 84.5455 43.6364C84.5455 30.0803 73.5561 19.0909 60 19.0909C46.4439 19.0909 35.4545 30.0803 35.4545 43.6364C35.4545 57.1924 46.4439 68.1818 60 68.1818Z" fill="#DEDEDE"/>
<path d="M60 73.6364C79.2458 73.6364 96.0407 84.1288 104.977 99.7053C93.9837 112.149 77.9102 120 60 120C42.0895 120 26.015 112.15 15.0213 99.7053C23.9579 84.1285 40.7539 73.6364 60 73.6364Z" fill="#DEDEDE"/>
</svg>
