<svg width="24" height="24" viewBox="0 0 24 24" fill="none" xmlns="http://www.w3.org/2000/svg">
<path d="M20.25 19.3701C20.25 19.9669 20.0129 20.5392 19.591 20.9611C19.169 21.3831 18.5967 21.6201 18 21.6201C17.4033 21.6201 16.831 21.3831 16.409 20.9611C15.9871 20.5392 15.75 19.9669 15.75 19.3701C15.75 18.7734 15.9871 18.2011 16.409 17.7791C16.831 17.3572 17.4033 17.1201 18 17.1201C18.5967 17.1201 19.169 17.3572 19.591 17.7791C20.0129 18.2011 20.25 18.7734 20.25 19.3701Z" stroke="#80B1E2" stroke-width="1.5" stroke-linecap="round" stroke-linejoin="round"/>
<path d="M8.25 19.3701C8.25 19.9669 8.01295 20.5392 7.59099 20.9611C7.16903 21.3831 6.59674 21.6201 6 21.6201C5.40326 21.6201 4.83097 21.3831 4.40901 20.9611C3.98705 20.5392 3.75 19.9669 3.75 19.3701C3.75 18.7734 3.98705 18.2011 4.40901 17.7791C4.83097 17.3572 5.40326 17.1201 6 17.1201C6.59674 17.1201 7.16903 17.3572 7.59099 17.7791C8.01295 18.2011 8.25 18.7734 8.25 19.3701Z" stroke="#80B1E2" stroke-width="1.5" stroke-linecap="round" stroke-linejoin="round"/>
<path d="M13 13.8701H0.75V17.8701C0.75 18.2679 0.908036 18.6495 1.18934 18.9308C1.47065 19.2121 1.85218 19.3701 2.25 19.3701H3.75" stroke="#80B1E2" stroke-width="1.5" stroke-linecap="round" stroke-linejoin="round"/>
<path d="M13.5 19.3701H8.25" stroke="#80B1E2" stroke-width="1.5" stroke-linecap="round" stroke-linejoin="round"/>
<path d="M23.25 15.3701H20.79" stroke="#80B1E2" stroke-width="1.5" stroke-linecap="round" stroke-linejoin="round"/>
<path d="M20.25 19.3699H21.75C22.1478 19.3699 22.5294 19.2118 22.8107 18.9305C23.092 18.6492 23.25 18.2677 23.25 17.8699V13.6399C23.2497 13.3409 23.16 13.0488 22.9925 12.8011C22.8251 12.5535 22.5874 12.3615 22.31 12.2499L19.5 11.1199L18.75 5.87988H13V19.3699H15.75" stroke="#80B1E2" stroke-width="1.5" stroke-linecap="round" stroke-linejoin="round"/>
<path d="M19.5 11.1201H13" stroke="#80B1E2" stroke-width="1.5" stroke-linecap="round" stroke-linejoin="round"/>
<path d="M0.75 13.8699V3.37988C0.75 3.11467 0.855356 2.86031 1.04289 2.67278C1.23043 2.48524 1.48478 2.37988 1.75 2.37988H13V13.8699" stroke="#80B1E2" stroke-width="1.5" stroke-linecap="round" stroke-linejoin="round"/>
<path d="M19.25 2.37988H13V5.87988H20.25V3.37988C20.25 3.11467 20.1446 2.86031 19.9571 2.67278C19.7696 2.48524 19.5152 2.37988 19.25 2.37988Z" stroke="#80B1E2" stroke-width="1.5" stroke-linecap="round" stroke-linejoin="round"/>
</svg>
