<svg width="24" height="24" viewBox="0 0 24 24" fill="none" xmlns="http://www.w3.org/2000/svg">
<g clip-path="url(#clip0_136_1954)">
<path d="M17.9469 11.68L19.4879 15H22.4879C22.6392 14.9941 22.7886 15.035 22.9158 15.1172C23.0429 15.1994 23.1416 15.3189 23.1982 15.4593C23.2549 15.5997 23.2669 15.7542 23.2324 15.9016C23.198 16.0491 23.1189 16.1823 23.0059 16.283L20.4059 18.846L21.8479 22.159C21.9109 22.3108 21.9247 22.4784 21.8875 22.6384C21.8503 22.7985 21.7639 22.9428 21.6404 23.0511C21.5169 23.1595 21.3626 23.2265 21.1991 23.2426C21.0356 23.2587 20.8712 23.2232 20.7289 23.141L17.2399 21.183L13.7529 23.144C13.6106 23.2262 13.4462 23.2617 13.2827 23.2456C13.1192 23.2295 12.9649 23.1625 12.8414 23.0541C12.7179 22.9458 12.6315 22.8015 12.5943 22.6414C12.557 22.4814 12.5709 22.3138 12.6339 22.162L14.0769 18.849L11.4769 16.286C11.3627 16.1862 11.2822 16.0533 11.2466 15.9059C11.211 15.7584 11.2219 15.6035 11.278 15.4625C11.334 15.3215 11.4323 15.2013 11.5595 15.1185C11.6866 15.0357 11.8363 14.9943 11.9879 15H14.9879L16.5319 11.677C16.6001 11.5484 16.7021 11.4409 16.827 11.366C16.9518 11.2911 17.0947 11.2516 17.2403 11.252C17.3859 11.2523 17.5286 11.2923 17.6531 11.3677C17.7776 11.4432 17.8792 11.5511 17.9469 11.68Z" stroke="#FF9DE2" stroke-width="1.5" stroke-linecap="round" stroke-linejoin="round"/>
<path d="M3.75 6.75H14.25" stroke="#FF9DE2" stroke-width="1.5" stroke-linecap="round" stroke-linejoin="round"/>
<path d="M3.75 11.25H11.25" stroke="#FF9DE2" stroke-width="1.5" stroke-linecap="round" stroke-linejoin="round"/>
<path d="M3.75 15.75H7.5" stroke="#FF9DE2" stroke-width="1.5" stroke-linecap="round" stroke-linejoin="round"/>
<path d="M7.5 20.25H2.25C1.85218 20.25 1.47064 20.092 1.18934 19.8107C0.908035 19.5294 0.75 19.1478 0.75 18.75V2.25C0.75 1.85218 0.908035 1.47064 1.18934 1.18934C1.47064 0.908035 1.85218 0.75 2.25 0.75H12.879C13.2765 0.750085 13.6578 0.907982 13.939 1.189L16.811 4.061C17.092 4.3422 17.2499 4.72345 17.25 5.121V7.5" stroke="#FF9DE2" stroke-width="1.5" stroke-linecap="round" stroke-linejoin="round"/>
</g>
<defs>
<clipPath id="clip0_136_1954">
<rect width="24" height="24" fill="white"/>
</clipPath>
</defs>
</svg>
